<?xml version="1.0" encoding="UTF-8" standalone="no"?>
<!-- Created with Inkscape (http://www.inkscape.org/) -->

<svg
   width="100mm"
   height="100mm"
   viewBox="0 0 100 100"
   version="1.1"
   id="svg5"
   sodipodi:docname="drawing.svg"
   inkscape:version="1.1.2 (b8e25be8, 2022-02-05)"
   xmlns:inkscape="http://www.inkscape.org/namespaces/inkscape"
   xmlns:sodipodi="http://sodipodi.sourceforge.net/DTD/sodipodi-0.dtd"
   xmlns="http://www.w3.org/2000/svg"
   xmlns:svg="http://www.w3.org/2000/svg">
  <sodipodi:namedview
     id="namedview7"
     pagecolor="#505050"
     bordercolor="#ffffff"
     borderopacity="1"
     inkscape:pageshadow="0"
     inkscape:pageopacity="0"
     inkscape:pagecheckerboard="1"
     inkscape:document-units="mm"
     showgrid="false"
     inkscape:zoom="1.04964"
     inkscape:cx="150.05145"
     inkscape:cy="161.96029"
     inkscape:window-width="1440"
     inkscape:window-height="900"
     inkscape:window-x="0"
     inkscape:window-y="0"
     inkscape:window-maximized="0"
     inkscape:current-layer="layer1" />
  <defs
     id="defs2">
    <inkscape:path-effect
       effect="powermask"
       id="path-effect8310"
       is_visible="true"
       lpeversion="1"
       uri="#mask-powermask-path-effect8310"
       invert="false"
       hide_mask="false"
       background="true"
       background_color="#ffffffff" />
    <rect
       x="180.06174"
       y="247.70398"
       width="108.60867"
       height="55.257041"
       id="rect5340" />
    <inkscape:path-effect
       effect="powermask"
       id="path-effect2173"
       is_visible="true"
       lpeversion="1"
       uri="#mask-powermask-path-effect2173"
       invert="false"
       hide_mask="false"
       background="true"
       background_color="#ffffffff" />
    <inkscape:path-effect
       effect="powermask"
       id="path-effect1229"
       is_visible="true"
       lpeversion="1"
       uri="#mask-powermask-path-effect1229"
       invert="false"
       hide_mask="false"
       background="true"
       background_color="#ffffffff" />
    <filter
       id="mask-powermask-path-effect2017_inverse"
       inkscape:label="filtermask-powermask-path-effect2017"
       style="color-interpolation-filters:sRGB"
       height="100"
       width="100"
       x="-50"
       y="-50">
      <feColorMatrix
         id="mask-powermask-path-effect2017_primitive1"
         values="1"
         type="saturate"
         result="fbSourceGraphic" />
      <feColorMatrix
         id="mask-powermask-path-effect2017_primitive2"
         values="-1 0 0 0 1 0 -1 0 0 1 0 0 -1 0 1 0 0 0 1 0 "
         in="fbSourceGraphic" />
    </filter>
    <clipPath
       clipPathUnits="userSpaceOnUse"
       id="clipPath2180">
      <path
         id="rect2182"
         d="M -11.811778,341.45038 H 276.77657 V 482.66136 H -11.811778 Z"
         style="fill:#aa0000;fill-opacity:0.979757;stroke:#00fc00;stroke-width:0.771075;stroke-opacity:0" />
    </clipPath>
    <mask
       maskUnits="userSpaceOnUse"
       id="mask-powermask-path-effect8310">
      <path
         id="mask-powermask-path-effect8310_box"
         style="fill:#ffffff;fill-opacity:1"
         d="m 27.880833,46.33999 h 44.238345 v 54.50273 H 27.880833 Z" />
      <text
         xml:space="preserve"
         style="font-style:normal;font-weight:normal;font-size:5.55651px;line-height:1.25;font-family:sans-serif;fill:#000000;fill-opacity:1;stroke:none;stroke-width:0.138913"
         x="29.704172"
         y="76.720406"
         id="text8308"><tspan
           sodipodi:role="line"
           style="font-weight:bold;stroke-width:0.138913"
           x="29.704172"
           y="76.720406"
           id="tspan8304"
           dx="0.39703056">Owen's</tspan><tspan
           sodipodi:role="line"
           style="font-weight:bold;stroke-width:0.138913"
           x="29.704172"
           y="83.666039"
           id="tspan8306">Plants</tspan></text>
    </mask>
    <filter
       id="mask-powermask-path-effect8310_inverse"
       inkscape:label="filtermask-powermask-path-effect8310"
       style="color-interpolation-filters:sRGB"
       height="100"
       width="100"
       x="-50"
       y="-50">
      <feColorMatrix
         id="mask-powermask-path-effect8310_primitive1"
         values="1"
         type="saturate"
         result="fbSourceGraphic" />
      <feColorMatrix
         id="mask-powermask-path-effect8310_primitive2"
         values="-1 0 0 0 1 0 -1 0 0 1 0 0 -1 0 1 0 0 0 1 0 "
         in="fbSourceGraphic" />
    </filter>
  </defs>
  <g
     inkscape:label="Layer 1"
     inkscape:groupmode="layer"
     id="layer1">
    <g
       id="g1976">
      <g
         id="g8341">
        <g
           id="g8327">
          <g
             id="g2261"
             transform="matrix(1.9046686,0,0,1.9046686,-45.233431,-90.167285)"
             clip-path="none"
             mask="url(#mask-powermask-path-effect8310)">
            <g
               id="g2247"
               transform="matrix(0.67199479,0,0,0.58286637,18.069516,36.206332)">
              <g
                 id="path1305">
                <path
                   style="color:#000000;fill:#008080;fill-opacity:0.979757;stroke-width:0.313333;-inkscape-stroke:none"
                   d="m 48.219893,21.305095 c 0.203835,0.349336 0.437931,0.687771 0.611503,1.048009 1.894705,3.932354 2.433489,8.221329 2.963734,12.393289 0.396036,2.951802 0.227504,5.90282 -0.339075,8.826252 -0.174758,1.199608 -0.595639,2.359934 -0.848562,3.54778 -0.09034,0.481079 -0.07846,0.971779 -0.217085,1.448094 -0.0611,0.209839 -0.159342,0.411244 -0.229462,0.619151 -0.345184,0.801602 -0.782802,1.569757 -1.154018,2.366358 -0.455571,0.865352 -0.961571,1.715416 -1.511948,2.542842 -0.313957,0.499159 -0.673124,0.974886 -1.003935,1.46654 -0.261578,0.458583 -0.632012,0.805426 -1.078062,1.147687 -0.478247,0.377615 -0.923358,0.784969 -1.352111,1.200444 -0.344909,0.350695 -0.761091,0.647783 -1.159202,0.955917 0,0 4.613597,-1.560016 4.613597,-1.560016 v 0 c 0.42156,-0.329649 0.846931,-0.657132 1.232535,-1.016116 0.464329,-0.397393 0.888774,-0.824814 1.389423,-1.193434 0.416807,-0.37794 0.733674,-0.802632 1.021312,-1.254259 0.319582,-0.483024 0.667091,-0.953175 0.944466,-1.454894 0.502633,-0.837792 0.985344,-1.684526 1.415272,-2.549486 0.421089,-0.811042 0.925642,-1.596259 1.223969,-2.44674 0.22714,-0.687877 0.314728,-1.39326 0.402799,-2.101059 0.198377,-1.155651 0.485779,-2.300911 0.610654,-3.464892 0.33974,-2.889487 0.325693,-5.80681 -0.276122,-8.675774 -0.70088,-3.550497 -1.304484,-7.116752 -2.055521,-10.660106 -0.141469,-0.667431 -0.323017,-1.328818 -0.463963,-1.996316 -0.08186,-0.387928 -0.136272,-0.779473 -0.204409,-1.169216 0,0 -4.535789,1.979945 -4.535789,1.979945 z"
                   id="path8278" />
                <path
                   style="color:#000000;fill:#00fc00;fill-opacity:0;-inkscape-stroke:none"
                   d="m 52.875,19.101562 -4.878906,2.13086 0.08789,0.152344 c 0.207952,0.35639 0.439152,0.691928 0.605469,1.037109 1.880409,3.902682 2.420908,8.171639 2.951172,12.34375 v 0.002 c 0.393427,2.932354 0.226045,5.865598 -0.337891,8.775391 l -0.002,0.0039 v 0.0039 c -0.171662,1.17836 -0.589735,2.334965 -0.845703,3.53711 l -0.002,0.002 v 0.002 c -0.09437,0.502519 -0.083,0.987305 -0.212891,1.433594 -0.05602,0.192394 -0.154025,0.390464 -0.228515,0.611328 -0.339793,0.78664 -0.773512,1.551192 -1.146485,2.351562 -0.451951,0.857826 -0.954125,1.700827 -1.5,2.521485 l -0.002,0.002 v 0.002 c -0.309171,0.49155 -0.667953,0.966497 -1.001953,1.46289 l -0.0039,0.0039 -0.002,0.0059 c -0.246883,0.43282 -0.59838,0.762966 -1.03711,1.099609 l -0.002,0.002 c -0.484148,0.382274 -0.934319,0.793367 -1.365234,1.210937 v 0.002 h -0.002 c -0.331746,0.337312 -0.74122,0.632712 -1.142578,0.94336 l 0.144531,0.271484 4.638672,-1.568359 0.02148,-0.01563 c 0.419107,-0.327731 0.846796,-0.657625 1.238281,-1.021485 l 0.0059,-0.0039 c 0.468476,-0.401424 0.888744,-0.823618 1.375,-1.181641 l 0.0059,-0.0059 0.0059,-0.0039 c 0.430089,-0.389983 0.755509,-0.82792 1.046875,-1.285157 l 0.002,-0.002 c 0.315384,-0.476507 0.663953,-0.947318 0.947265,-1.458984 l 0.002,-0.0039 c 0.503018,-0.838559 0.986021,-1.687617 1.417969,-2.556641 v 0.0039 c 0.416561,-0.80232 0.925802,-1.592674 1.232422,-2.466797 v -0.002 -0.002 c 0.232514,-0.704151 0.32046,-1.417835 0.408203,-2.123047 l 0.002,-0.0078 c 0.196887,-1.144557 0.485077,-2.28971 0.611328,-3.464844 v -0.002 c 0.340917,-2.900853 0.326267,-5.834553 -0.279297,-8.722656 v -0.002 c -0.700171,-3.547086 -1.302893,-7.11323 -2.054687,-10.660157 -0.142753,-0.673489 -0.325194,-1.334736 -0.464844,-1.996093 -0.08036,-0.380813 -0.134359,-0.770724 -0.203125,-1.164063 z m -0.238281,0.447266 c 0.05354,0.323213 0.100555,0.649794 0.169922,0.978516 0.142242,0.673637 0.324659,1.334723 0.464843,1.996093 0.750146,3.539148 1.353258,7.104922 2.054688,10.658204 v 0.002 c 0.597534,2.848556 0.61169,5.748159 0.273437,8.625 v 0.002 c -0.123318,1.149467 -0.409649,2.291571 -0.609375,3.455078 v 0.002 0.0039 c -0.08791,0.706538 -0.17647,1.400501 -0.396484,2.06836 -0.290034,0.826838 -0.789227,1.607972 -1.214844,2.427734 v 0.002 c -0.427262,0.859597 -0.908716,1.703259 -1.410156,2.539063 l -0.002,0.002 v 0.002 c -0.270618,0.489497 -0.616847,0.957718 -0.939453,1.445312 v 0.002 c -0.283538,0.445189 -0.593282,0.857406 -0.996094,1.222656 l 0.01367,-0.0098 c -0.513166,0.377837 -0.940438,0.807243 -1.398438,1.199219 l -0.0039,0.002 -0.002,0.002 c -0.372355,0.34665 -0.787629,0.667414 -1.203125,0.992188 l -3.779297,1.277343 c 0.172679,-0.139979 0.355715,-0.263456 0.511719,-0.421875 l 0.002,-0.002 c 0.425322,-0.412076 0.865142,-0.813646 1.335937,-1.185547 l 0.002,-0.002 c 0.452388,-0.347339 0.84138,-0.709831 1.117187,-1.193359 0.325144,-0.482499 0.681914,-0.954872 0.998047,-1.457031 l 0.002,-0.0039 c 0.552317,-0.830604 1.062057,-1.683767 1.519531,-2.552734 v -0.0039 l 0.002,-0.002 C 49.516029,50.832271 49.95486,50.062386 50.304687,49.25 l 0.002,-0.0059 0.002,-0.0059 c 0.06575,-0.19495 0.166242,-0.397717 0.232422,-0.625 v -0.002 c 0.147363,-0.50634 0.134389,-1.003253 0.220703,-1.462891 0.249567,-1.170182 0.669489,-2.329687 0.847656,-3.546875 0.569097,-2.936422 0.740105,-5.904407 0.341797,-8.875 v -0.002 c -0.530147,-4.17121 -1.069807,-8.478035 -2.978516,-12.439453 -0.154872,-0.321428 -0.350773,-0.612703 -0.529297,-0.90625 z"
                   id="path8280" />
              </g>
              <g
                 id="path1781"
                 inkscape:transform-center-x="6.3913013"
                 inkscape:transform-center-y="3.1294764"
                 transform="matrix(-0.07945126,0.02844151,-0.01701886,-0.04754213,95.600294,37.632142)">
                <path
                   style="color:#000000;fill:#008080;fill-opacity:0.979757;-inkscape-stroke:none"
                   d="m 412.23916,251.4066 c 48.17235,12.24159 -108.14512,168.55012 -109.61977,133.34481 -1.47465,-35.2053 -105.5357,-41.04049 -98.78577,-70.31136 6.74994,-29.27088 160.2332,-75.27503 208.40554,-63.03345 z"
                   id="path8284" />
                <path
                   style="color:#000000;fill:#00fc00;fill-opacity:0;-inkscape-stroke:none"
                   d="m 389.71875,248.89648 c -8.84804,0.14464 -18.83803,1.05733 -29.48828,2.58399 -21.30051,3.05332 -45.23124,8.57506 -67.8711,15.39648 -22.63985,6.82142 -43.98526,14.94042 -60.11718,23.19922 -8.06596,4.1294 -14.8292,8.29125 -19.8086,12.36133 -4.97939,4.07008 -8.20075,8.0436 -9.08789,11.89062 -0.87575,3.79769 0.064,7.26942 2.33008,10.38672 2.26605,3.11731 5.83516,5.91275 10.2832,8.53907 8.89608,5.25262 21.33182,9.82555 34.00782,14.58398 12.67599,4.75843 25.58995,9.70075 35.38672,15.61914 9.79677,5.91839 16.40722,12.75823 16.76562,21.31445 0.0962,2.29646 0.85573,3.9466 2.23242,4.83789 1.3767,0.8913 3.25083,0.99132 5.48242,0.51172 4.4632,-0.95919 10.51781,-4.25781 17.59766,-9.22265 14.1597,-9.9297 32.34363,-26.5647 48.98438,-44.68946 16.64074,-18.12475 31.72848,-37.72385 39.67187,-53.6289 3.9717,-7.95253 6.17499,-14.97899 5.83203,-20.51563 -0.17148,-2.76831 -0.99398,-5.17425 -2.57226,-7.07617 -1.57829,-1.90192 -3.89643,-3.28169 -6.98438,-4.06641 -6.08848,-1.5472 -13.79649,-2.17002 -22.64453,-2.02539 z m 0.0234,1.00782 c 8.79241,-0.14244 16.41845,0.47314 22.37304,1.98632 2.93359,0.74549 5.03934,2.02087 6.46289,3.73633 1.42356,1.71546 2.18217,3.88951 2.34375,6.49805 0.32317,5.21708 -1.79665,12.13504 -5.72851,20.00781 -7.86373,15.74555 -22.91425,35.31851 -39.51563,53.40039 -16.60138,18.08188 -34.76115,34.68769 -48.82031,44.54688 -7.02958,4.92959 -13.05488,8.16427 -17.23437,9.0625 -2.08975,0.44911 -3.67692,0.30777 -4.72852,-0.37305 -1.0516,-0.68082 -1.68725,-1.93486 -1.77539,-4.03906 -0.37893,-9.04641 -7.32958,-16.137 -17.24805,-22.12891 -9.91846,-5.9919 -22.8729,-10.93934 -35.55273,-15.69922 -12.67983,-4.75987 -25.0866,-9.3357 -33.84961,-14.50976 -4.38151,-2.58703 -7.8458,-5.32368 -9.98438,-8.26563 -2.13857,-2.94194 -2.97579,-6.05419 -2.16406,-9.57422 0.80035,-3.47068 3.85173,-7.33926 8.7461,-11.33984 4.89436,-4.00057 11.60587,-8.13767 19.63086,-12.24609 16.04996,-8.21685 37.35301,-16.32455 59.94921,-23.13282 22.5962,-6.80826 46.4896,-12.31906 67.72657,-15.36328 10.61848,-1.52211 20.57673,-2.42396 29.36914,-2.5664 z"
                   id="path8286" />
              </g>
            </g>
            <g
               id="path846"
               clip-path="url(#clipPath2180)"
               mask="none"
               inkscape:transform-center-y="-1.2807012e-06"
               transform="matrix(0.16847166,0,0,0.20083417,27.680472,2.9078211)">
              <path
                 style="color:#000000;fill:#008080;fill-opacity:0.979757;-inkscape-stroke:none"
                 d="M 257.33915,410.45327 132.48239,482.53935 7.6256337,410.45327 l 6e-7,-144.17217 124.8567557,-72.08608 124.85676,72.08609 z"
                 id="path8290" />
              <path
                 style="color:#000000;fill:#00fc00;fill-opacity:0;-inkscape-stroke:none"
                 d="M 132.48242,193.61719 7.125,265.99219 v 144.75 l 125.35742,72.375 125.35742,-72.375 v -0.28907 -144.46093 z m 0,1.15429 124.35742,71.79883 V 410.16406 L 132.48242,481.96289 8.125,410.16406 V 266.57031 Z"
                 id="path8292" />
            </g>
          </g>
        </g>
      </g>
      <text
         xml:space="preserve"
         transform="scale(0.26458333)"
         id="text5338"
         style="font-style:normal;font-weight:normal;font-size:40px;line-height:1.25;font-family:sans-serif;white-space:pre;shape-inside:url(#rect5340);fill:#000000;fill-opacity:1;stroke:none" />
    </g>
  </g>
</svg>
